<?xml version="1.0" encoding="UTF-8"?>
<svg id="_레이어_2" data-name="레이어 2" xmlns="http://www.w3.org/2000/svg" viewBox="0 0 38.71 38.71">
  <defs>
    <style>
      .cls-1 {
        fill: none;
        stroke: #565757;
        stroke-miterlimit: 10;
      }
    </style>
  </defs>
  <g id="_레이어_1-2" data-name="레이어 1">
    <path class="cls-1" d="m33.07,19.68c0-3.7,2.09-6.91,5.14-8.53v-5.74c0-2.71-2.2-4.9-4.9-4.9H5.4C2.7.5.5,2.7.5,5.4v5.8c2.99,1.64,5.03,4.82,5.03,8.47s-2.03,6.83-5.03,8.47v5.16c0,2.71,2.2,4.9,4.9,4.9h27.91c2.71,0,4.9-2.2,4.9-4.9v-5.1c-3.06-1.62-5.14-4.83-5.14-8.53Z"/>
    <polygon class="cls-1" points="26.42 19.36 15.65 13.14 15.65 25.57 26.42 19.36"/>
  </g>
</svg>